<svg width="55" height="84" viewBox="0 0 55 84" fill="none" xmlns="http://www.w3.org/2000/svg">
<path d="M30.7021 59.7093L17.609 83.4242L21.9891 58.9725C24.0682 59.5174 26.2399 59.8057 28.4729 59.8057C29.2235 59.8057 29.9666 59.7729 30.7021 59.7093Z" fill="#F9C202"/>
<path d="M23.9266 48.1576L22.1411 58.124C18.3379 57.1769 14.835 55.3761 11.8117 52.9176C11.519 52.6786 11.231 52.4343 10.9468 52.183C6.50626 48.2664 3.20725 42.8794 1.67672 36.7055C1.4605 35.8333 1.27921 34.9468 1.13664 34.0448C0.955353 32.6586 0.861877 31.2416 0.861877 29.8009C0.861877 15.1146 10.5701 2.89391 23.3922 0.30304L15.3798 36.7055L12.0487 51.8413L23.9266 48.1576Z" fill="#F9C202"/>
<path d="M55 36.7054C54.8338 37.3775 54.6459 38.0414 54.4373 38.694C51.0004 49.4884 42.0532 57.4878 31.2498 58.7181L39.7976 43.2344L43.4025 36.7054H55Z" fill="#F9C202"/>
<path d="M54.898 21.0813H39.2801L46.0443 6.65558C49.383 9.65175 52.0617 13.4842 53.8084 17.8574C54.2267 18.9029 54.5912 19.9783 54.898 21.0813Z" fill="#F9C202"/>
</svg>
