<svg width="30" height="46" viewBox="0 0 30 46" fill="none" xmlns="http://www.w3.org/2000/svg">
<g clip-path="url(#clip0_170_2821)">
<path d="M16.5356 32.876L9.28021 46L11.7074 32.4682C12.8595 32.7698 14.0629 32.9293 15.3003 32.9293C15.7163 32.9293 16.128 32.9112 16.5356 32.876Z" fill="#F9C202"/>
<path d="M12.7811 26.4832L11.7917 31.9986C9.68415 31.4745 7.74303 30.478 6.0677 29.1174C5.90551 28.9851 5.74593 28.8499 5.58844 28.7108C3.12777 26.5434 1.29966 23.5622 0.451533 20.1454C0.331717 19.6628 0.23126 19.1722 0.152255 18.673C0.0517981 17.9059 0 17.1217 0 16.3244C0 8.19684 5.37968 1.43381 12.4849 0L8.04493 20.1454L6.19903 28.5217L12.7811 26.4832Z" fill="#F9C202"/>
<path d="M30 20.1454C29.9079 20.5174 29.8038 20.8848 29.6882 21.2459C27.7837 27.2197 22.8257 31.6466 16.8391 32.3274L21.5758 23.7586L23.5734 20.1454H30Z" fill="#F9C202"/>
<path d="M29.9435 11.4989H21.289L25.0373 3.51553C26.8874 5.17364 28.3717 7.29454 29.3397 9.7147C29.5715 10.2933 29.7734 10.8884 29.9435 11.4989Z" fill="#F9C202"/>
</g>
<defs>
<clipPath id="clip0_170_2821">
<rect width="30" height="46" fill="white"/>
</clipPath>
</defs>
</svg>
