<svg width="228" height="348" viewBox="0 0 228 348" fill="none" xmlns="http://www.w3.org/2000/svg">
<path d="M39.2415 228.022L39.2137 228.135C15.0444 206.7 0.80603 171.875 0.80603 123.829C0.80603 46.2464 37.9322 7.89193 95.4982 0.929565L95.4703 1.04222L95.5379 1.02786L40.7781 228.038L95.6707 211.293L86.1842 251.078C68.6854 247.447 53.2506 240.16 40.4873 229.244L40.4744 229.297L40.1036 228.914C39.9132 228.749 39.7234 228.584 39.5342 228.417L39.6032 228.396L39.2415 228.022Z" fill="#F9C202"/>
<path d="M200.513 30.8968L169.019 92.4441H227.046C225.289 67.4364 215.908 46.504 200.513 30.8968Z" fill="#F9C202"/>
<path d="M226.546 160.118C220.06 211.975 179.625 248.22 126.369 253.196L188.511 160.118H226.546Z" fill="#F9C202"/>
<path d="M121.915 259.867C119.935 259.943 117.945 259.981 115.947 259.981C105.274 259.981 94.8605 258.89 84.8164 256.816L63.0743 348L121.915 259.867Z" fill="#F9C202"/>
</svg>
