<svg width="45" height="64" viewBox="0 0 45 64" fill="none" xmlns="http://www.w3.org/2000/svg">
<path d="M11.255 0.820557H17.7V3.6629H13.95V6.50524H17.7V9.34759H11.255V0.820557ZM18.9875 0.820557H25.435V3.29376H21.685V3.78682H25.435V9.47151H18.9875V6.87701H22.7375V6.38132H18.9875V0.820557ZM26.725 0.820557H33.1675V3.29376H29.4175V3.78682H33.1675V9.47151H26.725V6.87701H30.475V6.38132H26.725V0.820557Z" fill="#F9C202"/>
<path fill-rule="evenodd" clip-rule="evenodd" d="M22.4775 63.8205L5.1175 58.737L0 12.9774H45L39.885 58.7318L22.4775 63.8205ZM10.1175 33.6912L10.595 39.302H29.0375L28.42 46.5793L22.485 48.272H22.48L16.555 46.5846L16.175 42.1101H10.8325L11.5775 50.9219L22.4775 54.1123L33.395 50.9219L34.725 35.1967L34.855 33.6912L35.815 22.3297H9.16L9.645 27.9432H29.985L29.5 33.6912H10.1175Z" fill="#F9C202"/>
</svg>
