<svg width="45" height="64" viewBox="0 0 45 64" fill="none" xmlns="http://www.w3.org/2000/svg">
<path d="M10.3846 0.820557C7.63045 0.820557 4.98908 1.81618 3.04159 3.5884C1.09409 5.36062 3.9501e-06 7.76426 3.9501e-06 10.2706C3.9501e-06 12.7769 1.09409 15.1805 3.04159 16.9527C4.98908 18.7249 7.63045 19.7206 10.3846 19.7206H34.6154C37.3696 19.7206 40.0109 18.7249 41.9584 16.9527C43.9059 15.1805 45 12.7769 45 10.2706C45 7.76426 43.9059 5.36062 41.9584 3.5884C40.0109 1.81618 37.3696 0.820557 34.6154 0.820557H10.3846ZM34.6154 22.8706C31.8612 22.8706 29.2198 23.8662 27.2724 25.6384C25.3249 27.4106 24.2308 29.8143 24.2308 32.3206C24.2308 34.8269 25.3249 37.2305 27.2724 39.0027C29.2198 40.7749 31.8612 41.7706 34.6154 41.7706C37.3696 41.7706 40.0109 40.7749 41.9584 39.0027C43.9059 37.2305 45 34.8269 45 32.3206C45 29.8143 43.9059 27.4106 41.9584 25.6384C40.0109 23.8662 37.3696 22.8706 34.6154 22.8706ZM3.9501e-06 32.3206C3.9501e-06 29.8143 1.09409 27.4106 3.04159 25.6384C4.98908 23.8662 7.63045 22.8706 10.3846 22.8706H20.7692V41.7706H10.3846C7.63045 41.7706 4.98908 40.7749 3.04159 39.0027C1.09409 37.2305 3.9501e-06 34.8269 3.9501e-06 32.3206ZM10.3846 44.9206C8.33074 44.9206 6.32298 45.4748 4.61524 46.5132C2.90749 47.5515 1.57647 49.0274 0.790486 50.7542C0.0044995 52.481 -0.201151 54.381 0.199542 56.2142C0.600235 58.0473 1.58927 59.7311 3.04159 61.0527C4.4939 62.3743 6.34426 63.2743 8.35868 63.639C10.3731 64.0036 12.4611 63.8165 14.3586 63.1012C16.2562 62.386 17.878 61.1747 19.0191 59.6207C20.1602 58.0666 20.7692 56.2396 20.7692 54.3706V44.9206H10.3846Z" fill="#F9C202"/>
</svg>
