<svg width="45" height="64" viewBox="0 0 45 64" fill="none" xmlns="http://www.w3.org/2000/svg">
<path d="M5.2 0.820557H7.905V3.62668H10.38V0.820557H13.085V9.31506H10.38V6.47218H7.905V9.31506H5.2025L5.2 0.820557ZM16.64 3.63718H14.26V0.820557H21.7275V3.63718H19.345V9.31506H16.64V3.63718ZM22.9125 0.820557H25.7325L27.4675 3.80518L29.2 0.820557H32.02V9.31506H29.3275V5.10456L27.4675 8.12593H27.42L25.5575 5.10718V9.31506H22.9125V0.820557ZM33.365 0.820557H36.0725V6.50893H39.8725V9.31768H33.365V0.820557Z" fill="#F9C202"/>
<path fill-rule="evenodd" clip-rule="evenodd" d="M5.115 58.7595L0 13.2026H45L39.8825 58.7543L22.475 63.8205L5.115 58.7595ZM15.4575 33.822L14.9725 28.0995H35.335L35.81 22.5135H9.16L10.595 39.4106H29.0375L28.42 46.6556L22.485 48.3409H22.48L16.555 46.6609L16.175 42.2063H10.83L11.575 50.979L22.475 54.1553L33.3925 50.979L34.7225 35.3235L34.8525 33.8246H15.4575V33.822Z" fill="#F9C202"/>
</svg>
