<svg width="63" height="64" viewBox="0 0 63 64" fill="none" xmlns="http://www.w3.org/2000/svg">
<path fill-rule="evenodd" clip-rule="evenodd" d="M23.4829 34.8204H31.1674C29.8446 30.3204 28.5417 26.1605 27.2599 21.9325C26.0161 26.1755 24.7543 30.3204 23.4829 34.8204ZM61.5562 0.820557H0.94505C-0.147799 0.820557 0.00867947 1.05856 0.00867947 2.11305V62.8098C0.00867947 63.8633 -0.147799 63.8203 0.868061 63.8203H61.6332C62.6485 63.8203 63 63.8633 63 62.8093V2.19005C63 1.05856 62.649 0.820557 61.5562 0.820557ZM38.1524 48.3204C37.334 48.3204 36.5126 48.2539 35.6983 48.3124C35.1108 48.3564 34.9144 48.1094 34.7579 47.5994C34.001 45.1339 33.1966 42.6694 32.4392 40.2044C32.2867 39.7084 32.0688 39.5274 31.5313 39.5339C28.7702 39.5659 26.0076 39.5629 23.246 39.5304C22.6646 39.5234 22.3971 39.6784 22.2311 40.2554C21.5282 42.7074 20.7593 45.1394 20.0489 47.5889C19.8949 48.1199 19.661 48.3054 19.097 48.2909C17.4383 48.2494 15.777 48.2749 13.9608 48.2749C14.4402 46.7524 14.8751 45.3444 15.3251 43.9424C18.0817 35.3424 20.8478 26.7425 23.5844 18.137C23.7754 17.538 24.0409 17.3535 24.6558 17.367C26.5985 17.41 28.5427 17.378 30.4865 17.367C30.8499 17.3645 31.0979 17.386 31.2309 17.799C34.4829 27.857 37.7465 37.9769 41.007 48.0339C41.021 48.0794 41.012 48.3204 41.0195 48.3204H38.1524ZM48.502 48.3204H42.5028V25.8205H48.502V48.3204ZM45.3274 22.785C43.4952 22.7825 42.1834 21.521 42.1709 19.75C42.1589 17.984 43.5242 16.6705 45.3734 16.6685C47.2372 16.6665 48.5505 17.937 48.565 19.754C48.578 21.5265 47.2317 22.788 45.3274 22.785Z" fill="#F9C202"/>
</svg>
