<svg width="63" height="64" viewBox="0 0 63 64" fill="none" xmlns="http://www.w3.org/2000/svg">
<path fill-rule="evenodd" clip-rule="evenodd" d="M63 0.820557H0V63.8206H63V0.820557ZM33.6 34.4206C33.6 32.1927 34.485 30.0562 36.0603 28.4809C37.6356 26.9056 39.7722 26.0206 42 26.0206H46.9014C51.1518 26.0206 54.6 29.4646 54.6 33.7192V34.4206H50.4V33.7192C50.4 33.2597 50.3095 32.8048 50.1337 32.3803C49.9579 31.9558 49.7002 31.5701 49.3753 31.2453C49.0504 30.9204 48.6647 30.6627 48.2403 30.4869C47.8158 30.311 47.3608 30.2206 46.9014 30.2206H42C40.8861 30.2206 39.8178 30.6631 39.0302 31.4507C38.2425 32.2384 37.8 33.3066 37.8 34.4206C37.8 35.5345 38.2425 36.6027 39.0302 37.3904C39.8178 38.1781 40.8861 38.6206 42 38.6206H46.2C48.4278 38.6206 50.5644 39.5056 52.1397 41.0809C53.715 42.6562 54.6 44.7927 54.6 47.0206C54.6 49.2484 53.715 51.3849 52.1397 52.9603C50.5644 54.5356 48.4278 55.4206 46.2 55.4206H42C39.7722 55.4206 37.6356 54.5356 36.0603 52.9603C34.485 51.3849 33.6 49.2484 33.6 47.0206H37.8C37.8 48.1345 38.2425 49.2028 39.0302 49.9904C39.8178 50.7781 40.8861 51.2206 42 51.2206H46.2C47.3139 51.2206 48.3822 50.7781 49.1698 49.9904C49.9575 49.2028 50.4 48.1345 50.4 47.0206C50.4 45.9066 49.9575 44.8384 49.1698 44.0507C48.3822 43.2631 47.3139 42.8206 46.2 42.8206H42C39.7722 42.8206 37.6356 41.9356 36.0603 40.3602C34.485 38.7849 33.6 36.6484 33.6 34.4206ZM25.2 26.0206V47.0206C25.2 48.1345 24.7575 49.2028 23.9698 49.9904C23.1822 50.7781 22.1139 51.2206 21 51.2206C19.8861 51.2206 18.8178 50.7781 18.0302 49.9904C17.2425 49.2028 16.8 48.1345 16.8 47.0206H12.6C12.6 49.2484 13.485 51.3849 15.0603 52.9603C16.6356 54.5356 18.7722 55.4206 21 55.4206C23.2278 55.4206 25.3644 54.5356 26.9397 52.9603C28.515 51.3849 29.4 49.2484 29.4 47.0206V26.0206H25.2Z" fill="#F9C202"/>
</svg>
