<svg width="63" height="64" viewBox="0 0 63 64" fill="none" xmlns="http://www.w3.org/2000/svg">
<path d="M0.084375 9.28429C0.084375 4.60252 3.85313 0.834616 8.49375 0.834616C12.7125 0.834616 16.1578 3.91362 16.8188 7.89242C21.4031 6.8239 26.2547 7.97677 30.3891 12.1102L24.1594 18.3385C21.2766 15.4564 18.1688 16.0468 16.3687 17.8464C14.3578 19.8569 14.3578 23.1749 16.3687 25.1854L30.3609 39.1745L24.1734 45.4028C11.8406 33.143 17.1844 38.4153 10.1391 31.3856C6.37031 27.6599 5.21719 22.2751 6.65156 17.4809C2.86875 16.6655 0.084375 13.3053 0.084375 9.28429ZM18.2953 25.6494L24.525 31.8777C25.9312 30.4718 37.1391 19.2664 38.5453 17.8464C40.5563 15.836 43.8328 15.836 45.8438 17.8464C47.6437 19.646 48.2344 22.7672 45.3516 25.6353L51.5391 31.8636C55.9266 27.4771 56.9531 22.3595 55.6031 17.6356C59.7094 17.0591 62.9016 13.5302 62.9016 9.27023C62.9016 4.60252 59.1328 0.820557 54.4922 0.820557C50.2313 0.820557 46.7016 3.98391 46.125 8.07519C41.3719 6.68331 36.0422 7.8643 32.3016 11.6041C29.7281 14.2894 22.3031 21.6565 18.2953 25.6494ZM55.7437 47.0477C56.8969 42.4503 55.6172 37.4171 52.0453 33.846C50.3859 32.1308 52.7484 34.5068 38.0531 19.8288L31.8234 26.0571L45.8438 40.0743C47.8547 42.0848 47.8547 45.3606 45.8438 47.3711C44.0438 49.1707 40.9219 49.7612 38.0531 46.879L31.8656 53.1073C35.7469 57.3532 41.4281 58.5624 46.3078 57.0439C47.0812 60.8962 50.4844 63.8065 54.5906 63.8065C59.2313 63.8065 63 60.0386 63 55.3568C63 51.1109 59.8359 47.6242 55.7437 47.0477ZM43.8891 39.5822L37.7016 33.3539C25.4672 45.5012 30.6141 40.4398 23.6812 47.3852C21.6703 49.3957 18.3937 49.3957 16.3828 47.3852C14.5406 45.5012 14.0062 42.4222 16.8328 39.5963L10.6453 33.368C6.39844 37.6139 5.30156 42.5347 6.49688 47.1883C2.74219 48.0319 0 51.3921 0 55.3709C0 60.0526 3.76875 63.8206 8.40938 63.8206C12.4312 63.8206 15.7922 61.0368 16.65 57.2548C21.2484 58.4077 26.2828 57.1705 29.8969 53.5994C34.4109 49.1004 31.6125 51.856 43.8891 39.5822Z" fill="#F9C202"/>
</svg>
