<svg width="63" height="64" viewBox="0 0 63 64" fill="none" xmlns="http://www.w3.org/2000/svg">
<path fill-rule="evenodd" clip-rule="evenodd" d="M24.623 21.1684C22.782 20.705 20.9385 20.8538 18.993 21.1574C18.993 24.5666 18.986 27.8841 19.0115 31.2021C19.0125 31.3719 19.267 31.6675 19.432 31.6901C21.5535 31.9771 23.6635 32.0002 25.6475 31.0313C27.7 30.0293 28.7455 27.9342 28.4745 25.4744C28.2285 23.2345 26.905 21.7431 24.623 21.1684ZM63 32.3639V1.9653C63 0.915242 63.0115 0.820557 61.994 0.820557H1.2395C0.25 0.820557 0 0.915743 0 1.9157V62.7895C0 63.8005 0.126 63.802 1.1045 63.802C21.382 63.8025 41.72 63.7975 61.9975 63.8206C62.784 63.8216 62.995 63.6116 62.993 62.8391C62.966 52.6807 63 42.5213 63 32.3639ZM27.676 35.2896C24.8975 36.2826 22 36.3382 19 36.1052V47.4119H13.5V46.7095C13.5 37.2435 13.4565 27.7784 13.43 18.3128C13.427 17.5268 13.5515 17.1471 14.4355 17.0569C18.6015 16.63 22.744 16.1501 26.8865 17.1235C31.3395 18.1691 33.907 21.1188 34.102 25.1943C34.3435 30.2412 32.13 33.698 27.676 35.2896ZM49.831 41.6791C49.619 44.5703 47.992 46.4685 45.3235 47.3863C41.7525 48.6147 38.201 48.3297 34.711 46.94C34.1395 46.712 34.029 46.4235 34.2175 45.8398C34.561 44.7747 34.8125 43.6796 35.0775 42.6906C36.553 43.1245 37.956 43.666 39.4095 43.922C40.436 44.1029 41.5455 43.9967 42.589 43.8329C43.5245 43.6856 44.1975 43.0493 44.351 42.0434C44.507 41.0209 44.1995 40.1351 43.2985 39.5911C42.5825 39.1592 41.7935 38.8501 41.037 38.4879C39.8205 37.9053 38.524 37.4484 37.402 36.7194C32.9865 33.8503 34.424 28.5118 37.3705 26.5014C38.947 25.4263 40.6915 24.9494 42.559 24.8837C44.7555 24.8066 46.8705 25.1863 48.948 26.1978L47.8505 30.1C46.9805 29.7913 46.1705 29.3906 45.3155 29.2312C44.301 29.0419 43.237 28.9362 42.213 29.0198C40.84 29.1326 40.036 30.0819 40.036 31.2592C40.036 31.9566 40.3 32.5467 40.8805 32.8849C41.7135 33.3704 42.5975 33.7706 43.4735 34.1769C44.4215 34.6163 45.4225 34.954 46.335 35.4555C48.77 36.7931 50.0375 38.8621 49.831 41.6791Z" fill="#F9C202"/>
</svg>
