<svg width="70" height="64" viewBox="0 0 70 64" fill="none" xmlns="http://www.w3.org/2000/svg">
<path d="M35 26.0069C31.5591 26.0069 28.7569 28.8414 28.7569 32.3221C28.7569 35.8027 31.5591 38.6373 35 38.6373C38.4409 38.6373 41.2431 35.8027 41.2431 32.3221C41.2431 28.8414 38.4409 26.0069 35 26.0069ZM17.5219 44.8728L16.1438 44.5276C5.88875 41.8988 0 37.4512 0 32.311C0 27.1708 5.89094 22.7232 16.1438 20.0944L17.5219 19.7492L17.9091 21.1322C18.9494 24.7545 20.2794 28.2852 21.8859 31.6892L22.1813 32.311L21.8859 32.9438C20.276 36.3464 18.9459 39.8774 17.9091 43.5009L17.5219 44.8728ZM15.5072 23.3206C7.71313 25.5333 2.92906 28.9321 2.92906 32.311C2.92906 35.6899 7.71531 39.0754 15.5072 41.3014C16.4624 38.2315 17.6155 35.2283 18.9591 32.311C17.6136 29.3945 16.4604 26.3912 15.5072 23.3206ZM52.4781 44.8728L52.0909 43.4898C51.0524 39.8705 49.7224 36.3433 48.1141 32.9438L47.8188 32.311L48.1141 31.6782C49.724 28.2756 51.0541 24.7446 52.0909 21.1211L52.4781 19.7492L53.8563 20.0944C64.1113 22.7232 70 27.1708 70 32.311C70 37.4512 64.1091 41.8988 53.8563 44.5276L52.4781 44.8728ZM51.0409 32.311C52.389 35.2264 53.5422 38.2299 54.4928 41.3014C62.2978 39.0776 67.0709 35.6899 67.0709 32.311C67.0709 28.9321 62.2847 25.5466 54.4928 23.3206C53.5354 26.3897 52.3824 29.3928 51.0409 32.311ZM15.4831 23.3095L15.0959 21.9266C12.2128 11.6461 13.09 4.27103 17.5 1.69982C21.8291 -0.824928 28.7678 2.16007 36.0478 9.72104L37.0387 10.7478L36.0478 11.7745C33.4625 14.4953 31.1003 17.4243 28.9844 20.5325L28.5863 21.0968L27.9016 21.1543C24.1795 21.4515 20.4873 22.0531 16.8612 22.9533L15.4831 23.3095ZM21.0197 3.75325C20.2344 3.75325 19.5388 3.91478 18.9569 4.25997C16.0628 5.95494 15.5509 11.832 17.5438 19.7603C20.6532 19.0567 23.8048 18.56 26.9784 18.2733C28.8056 15.641 30.8035 13.1343 32.9591 10.7699C28.4134 6.28685 24.1063 3.75325 21.0197 3.75325ZM48.9912 63.8183C48.9803 63.8183 48.9803 63.8183 48.9912 63.8183C44.8328 63.8183 39.4888 60.6607 33.9522 54.8987L32.9613 53.872L33.9522 52.8453C36.5375 50.1245 38.8997 47.1955 41.0156 44.0873L41.4028 43.523L42.0875 43.4544C45.8144 43.1672 49.511 42.5655 53.1387 41.6554L54.5169 41.3103L54.9041 42.6932C57.7872 52.9737 56.91 60.3377 52.5 62.9067C51.4338 63.5266 50.2208 63.8432 48.9912 63.8183ZM37.0387 53.8499C41.5844 58.3329 45.8916 60.8687 48.9781 60.8687H48.9891C49.7634 60.8687 50.4591 60.6962 51.0409 60.362C53.935 58.6671 54.46 52.79 52.4541 44.8617C49.3452 45.566 46.1933 46.0591 43.0194 46.3376C41.1923 48.9735 39.1944 51.4816 37.0387 53.8499ZM54.5169 23.3095L53.1387 22.9533C49.5084 22.0561 45.8128 21.4545 42.0875 21.1543L41.4028 21.0968L41.0156 20.5325C38.8997 17.4243 36.5375 14.4953 33.9522 11.7745L32.9613 10.7478L33.9522 9.72104C41.2322 2.16007 48.1709 -0.824928 52.5 1.69982C56.91 4.26882 57.7872 11.6461 54.9041 21.9266L54.5169 23.3095ZM43.0216 18.2733C46.1953 18.5592 49.347 19.0559 52.4562 19.7603C54.4622 11.832 53.9372 5.95272 51.0431 4.25997C48.16 2.57828 42.7372 5.15835 37.0409 10.7721C39.1907 13.1416 41.1883 15.6479 43.0216 18.2755V18.2733ZM21.0197 63.8183C19.7881 63.8405 18.5697 63.5307 17.5 62.9089C13.09 60.3399 12.2128 52.9737 15.0959 42.6954L15.4831 41.3125L16.8612 41.6577C20.2344 42.5228 23.9487 43.1203 27.9016 43.4566L28.5863 43.5252L28.9734 44.0895C31.0893 47.1977 33.4516 50.1267 36.0369 52.8475L37.0278 53.8742L36.0369 54.901C30.5113 60.663 25.1672 63.8206 21.0197 63.8206V63.8183ZM17.5459 44.8617C15.54 52.79 16.065 58.6693 18.9591 60.362C21.8422 62.0216 27.2541 59.4637 32.9613 53.8499C30.8056 51.4816 28.8076 48.9713 26.9806 46.3354C23.8066 46.0577 20.6546 45.5669 17.5459 44.8617ZM35 46.716C32.5959 46.716 30.135 46.612 27.6631 46.404L26.9784 46.3465L26.5803 45.7712C25.1841 43.7418 23.8726 41.6541 22.6494 39.5135C21.4236 37.3728 20.2873 35.181 19.2434 32.9438L18.9481 32.311L19.2434 31.6782C21.3347 27.2048 23.7888 22.9144 26.5803 18.8508L26.9784 18.2755L27.6631 18.218C32.5457 17.802 37.4543 17.802 42.3369 18.218L43.0216 18.2755L43.4197 18.8508C46.2148 22.9121 48.669 27.2028 50.7566 31.6782L51.0519 32.311L50.7566 32.9438C48.6732 37.4214 46.2188 41.7125 43.4197 45.7712L43.0216 46.3465L42.3369 46.404C39.8966 46.6106 37.4488 46.7147 35 46.716ZM28.5972 43.5119C32.9044 43.8461 37.0956 43.8461 41.4137 43.5119C43.822 39.9448 45.9623 36.1999 47.8166 32.3088C45.9701 28.4113 43.8257 24.6655 41.4028 21.1056C37.1407 20.7715 32.8593 20.7715 28.5972 21.1056C26.1726 24.6644 24.0281 28.4103 22.1834 32.3088C24.0383 36.2018 26.1823 39.947 28.5972 43.5119Z" fill="#F9C202"/>
</svg>
