<svg width="53" height="64" viewBox="0 0 53 64" fill="none" xmlns="http://www.w3.org/2000/svg">
<path d="M39.4625 1.45739L39.1323 8.57111C39.1283 8.66109 39.1513 8.75029 39.1986 8.8282C39.246 8.90611 39.3157 8.96949 39.3996 9.01086C39.4835 9.05224 39.578 9.06989 39.672 9.06174C39.7661 9.05359 39.8557 9.01997 39.9304 8.96486L42.8476 6.86486L45.3244 8.70236C45.3972 8.74887 45.4815 8.77617 45.5689 8.78147C45.6563 8.78677 45.7436 8.76989 45.8219 8.73254C45.9002 8.69519 45.9667 8.63871 46.0147 8.56885C46.0627 8.499 46.0904 8.41826 46.095 8.33486L45.8198 1.08989L49.4801 0.827391C49.9317 0.798969 50.3846 0.859397 50.8108 1.00492C51.2369 1.15045 51.6271 1.37797 51.9572 1.67335C52.2872 1.96874 52.5501 2.32568 52.7295 2.72203C52.9089 3.11838 53.001 3.54567 53 3.97738V60.6666C53.0006 61.0939 52.91 61.5168 52.7338 61.9096C52.5576 62.3024 52.2995 62.6569 51.9751 62.9516C51.6507 63.2463 51.2669 63.4749 50.847 63.6236C50.427 63.7723 49.9798 63.838 49.5324 63.8166L5.23489 61.9266C4.40178 61.8939 3.61248 61.5618 3.02545 60.997C2.43841 60.4322 2.09708 59.6765 2.07 58.8816L0.00593668 6.91474C-0.0201122 6.50092 0.0397356 6.08627 0.182048 5.69456C0.32436 5.30284 0.546337 4.94178 0.835252 4.63207C1.12417 4.32235 1.47434 4.07008 1.86568 3.88971C2.25703 3.70935 2.68185 3.60444 3.11579 3.581L39.435 1.40226L39.4625 1.45739ZM31.0136 25.2319C31.0136 26.4657 39.7102 25.8619 40.8936 25.0219C40.8936 16.6219 36.16 12.1857 27.5212 12.1857C18.8522 12.1857 14.0388 16.7007 14.0388 23.4469C14.0388 35.1281 30.5485 35.3381 30.5485 41.7142C30.5485 43.5517 29.6679 44.6017 27.6588 44.6017C25.0168 44.6017 23.9435 43.3155 24.0811 38.9317C24.0811 37.9867 14.0388 37.6717 13.7085 38.9317C12.9655 49.5104 19.8457 52.5817 27.7414 52.5817C35.4197 52.5817 41.4165 48.6704 41.4165 41.6092C41.4165 29.088 24.6315 29.4293 24.6315 23.2369C24.6315 20.6907 26.613 20.3494 27.7414 20.3494C28.9798 20.3494 31.1815 20.5332 31.0164 25.2582L31.0136 25.2319Z" fill="#F9C202"/>
</svg>
