<svg width="80" height="46" viewBox="0 0 80 46" fill="none" xmlns="http://www.w3.org/2000/svg">
<path d="M54.0467 0.820557L53.7967 2.50011C53.41 5.6831 53.55 6.59375 54.61 7.77502L55.6333 8.86609L54.5733 14.9572C53.94 18.5912 53.1633 21.6367 52.67 22.6376C52.2467 23.501 51.7533 24.7724 51.6467 25.4554C51.47 26.2716 50.87 27.092 49.9533 27.818C49.1433 28.4108 47.5533 30.0001 46.4267 31.2759C45.5267 32.3197 44.9067 32.9597 44.57 33.2346L43.47 34.3558C43.1871 34.8964 42.9743 35.4926 42.84 36.1212C42.7633 36.5809 42.8067 36.8858 42.92 37.1092C43.03 37.324 43.22 37.4743 43.48 37.5688C43.7878 37.6618 44.1046 37.6951 44.42 37.6676C45.1336 37.6048 45.8398 37.4435 46.5267 37.1865C46.76 37.1049 46.9433 37.0276 47.1033 36.9589C47.35 36.568 47.92 35.8291 48.93 34.5448C51.61 31.1384 52.6333 29.2742 51.5767 29.7767C51.1867 29.9572 51.3633 29.5018 52.0333 28.5912C53.4467 26.8171 54.2567 24.1367 55.95 15.7303C57.29 9.09375 57.29 8.99925 58.2767 8.99925C58.74 8.99925 60.05 9.10234 60.05 9.10234V0.820557H57.0433H54.0467ZM66.8433 14.4159C66.63 14.4159 66.2767 14.8283 66.0667 15.2836C65.68 16.0998 66.1367 16.598 71.9567 21.2802C75.4133 24.1023 78.2 26.5078 78.13 26.6925C78.06 26.8257 75.2367 29.1925 71.8533 31.9202C65.7133 36.8257 65.68 36.873 66.2433 37.8738C66.95 39.0551 66.2433 39.4632 74.2133 33.0542L80 28.2819V24.6908L73.5433 19.5534C70.0533 16.7355 67.02 14.4632 66.8433 14.4159ZM13.2267 14.9185C13.05 14.9185 10.0167 17.2381 6.52667 20.0087L0 25.1462V28.7372L6.49 33.9649C10.09 36.8257 13.1233 39.1925 13.2633 39.1925C13.4033 39.1925 13.6867 38.7802 13.97 38.2819C14.3933 37.4185 14.0367 37.0534 8.07667 32.1908C2.4 27.5989 1.8 26.9632 2.36667 26.4649C2.72 26.147 5.4 24.0078 8.29333 21.6925C14.89 16.4649 14.5367 16.8257 14.0067 15.7346C13.7967 15.2836 13.44 14.8755 13.23 14.9185H13.2267ZM42.1733 15.0173C41.2 15.0087 39.1067 16.9202 32.84 23.5139C32.57 24.3429 32.5467 24.9142 32.67 25.2836C32.75 25.537 32.8967 25.7132 33.1 25.842C33.3 25.9709 33.56 26.0482 33.8467 26.0783C34.4167 26.1427 35.09 26.0267 35.6333 25.8893L36 25.7819C36.1255 25.565 36.2903 25.391 36.48 25.275C36.8667 25.0001 38.49 23.0929 40.1133 21.0482C42.97 17.3197 43.64 15.6358 42.4767 15.0903C42.3812 15.0414 42.276 15.0166 42.1733 15.0173ZM49.4933 17.6075C48.6367 17.6376 47.0933 18.9176 44.45 21.6367C43.1233 23.0242 42.2833 23.7716 41.8333 23.9262L40.0867 25.7046C39.43 27.251 39.3333 28.2089 39.5067 28.7372C39.55 28.8676 39.613 28.9855 39.692 29.0843C39.7709 29.1831 39.8643 29.2608 39.9667 29.3128C40.2213 29.4424 40.4929 29.508 40.7667 29.5061C41.4209 29.4971 42.0713 29.3743 42.7 29.141C43.0277 29.0277 43.3513 28.8958 43.67 28.7458L43.7667 28.6943L43.9433 28.574C44.2767 28.0199 45.0433 26.9761 46.0033 25.7733C49.0367 22.0018 50.5867 19.3214 50.27 18.3206C50.1267 17.8352 49.88 17.5903 49.4933 17.6075ZM41.4133 22.2467C41.1667 22.281 40.6133 22.8309 39.6167 23.9563C38.1767 25.5972 36.6067 26.5422 36.0633 26.1212C35.9371 26.158 35.8104 26.1924 35.6833 26.2243C35.13 26.3661 34.44 26.4821 33.8233 26.4176C33.5328 26.395 33.248 26.3032 32.9833 26.147C32.7337 25.9999 32.5345 25.7402 32.4233 25.4168C32.3 25.0302 32.3 24.5491 32.44 23.9348L30.2733 26.2286L25.37 31.4563V39.9314L41.4367 23.6212C41.4335 23.4427 41.4515 23.2645 41.49 23.0929C41.6133 22.5173 41.6067 22.2252 41.4133 22.251V22.2467ZM48.3267 24.9915C48.0833 24.9915 47.6767 25.434 47.0267 26.3231C46.1433 27.5388 44.7533 28.7157 44.0167 28.9563L43.9033 29.0336C43.7824 29.098 43.6601 29.1581 43.5367 29.214C43.3367 29.2999 43.0767 29.403 42.7767 29.5061C42.1767 29.7166 41.43 29.9099 40.7633 29.8884C40.449 29.8879 40.1378 29.8091 39.8467 29.6565C39.5723 29.5107 39.3524 29.2336 39.2333 28.8833C39.04 28.2862 39.1167 27.4486 39.54 26.2587L25.3667 40.6444V45.8206H31.5933L44.8 32.4529C45.1433 31.9632 45.66 31.2931 46.3567 30.4554C48.2233 28.2261 48.6467 27.4572 48.6467 26.3188C48.6467 25.434 48.57 24.9872 48.3267 24.9872V24.9915ZM51.47 33.3678L50.34 34.8197C49.7067 35.5929 48.5767 36.5465 47.8033 36.9546L47.65 37.0405L47.64 37.062L47.6067 37.1049C47.5767 37.135 47.5633 37.1393 47.54 37.1522C47.2313 37.3027 46.9177 37.436 46.6 37.5517C45.8937 37.8166 45.1673 37.9822 44.4333 38.0456C44.0863 38.0743 43.7379 38.0352 43.4 37.9297C43.1067 37.8465 42.8478 37.6261 42.6733 37.3111C42.5133 36.9932 42.4667 36.568 42.5567 36.0439C42.6283 35.6708 42.7346 35.3102 42.8733 34.97L32.2167 45.8206H46.39L48.0833 43.3206C50.41 39.824 51.47 37.324 51.47 35.1848V33.3678Z" fill="#F9C202"/>
</svg>
