<svg width="63" height="64" viewBox="0 0 63 64" fill="none" xmlns="http://www.w3.org/2000/svg">
<path fill-rule="evenodd" clip-rule="evenodd" d="M0 0.820557H63V63.8206H0V0.820557ZM42 26.0206C39.7722 26.0206 37.6356 26.9056 36.0603 28.4809C34.485 30.0562 33.6 32.1927 33.6 34.4206C33.6 36.6484 34.485 38.7849 36.0603 40.3602C37.6356 41.9356 39.7722 42.8206 42 42.8206H46.2C47.3139 42.8206 48.3822 43.2631 49.1698 44.0507C49.9575 44.8384 50.4 45.9066 50.4 47.0206C50.4 48.1345 49.9575 49.2028 49.1698 49.9904C48.3822 50.7781 47.3139 51.2206 46.2 51.2206H42C40.8861 51.2206 39.8178 50.7781 39.0302 49.9904C38.2425 49.2028 37.8 48.1345 37.8 47.0206H33.6C33.6 49.2484 34.485 51.3849 36.0603 52.9603C37.6356 54.5356 39.7722 55.4206 42 55.4206H46.2C48.4278 55.4206 50.5644 54.5356 52.1397 52.9603C53.715 51.3849 54.6 49.2484 54.6 47.0206C54.6 44.7927 53.715 42.6562 52.1397 41.0809C50.5644 39.5056 48.4278 38.6206 46.2 38.6206H42C40.8861 38.6206 39.8178 38.1781 39.0302 37.3904C38.2425 36.6027 37.8 35.5345 37.8 34.4206C37.8 33.3066 38.2425 32.2384 39.0302 31.4507C39.8178 30.6631 40.8861 30.2206 42 30.2206H46.9014C48.8334 30.2206 50.4 31.7872 50.4 33.7192V34.4206H54.6V33.7192C54.6 29.4688 51.156 26.0206 46.9014 26.0206H42ZM12.6 26.0206H33.6V30.2206H25.2V55.4206H21V30.2206H12.6V26.0206Z" fill="#F9C202"/>
</svg>
