<svg width="80" height="44" viewBox="0 0 80 44" fill="none" xmlns="http://www.w3.org/2000/svg">
<path d="M66 13.4156C63.0002 12.4918 60.3523 10.8309 58.36 8.62333C56.1642 6.16366 53.3682 4.18563 50.186 2.84053C47.0038 1.49544 43.5196 0.81893 40 0.862756C35.2655 0.562974 30.5783 1.86857 26.872 4.51955C23.1657 7.17052 20.7122 10.9724 20 15.168C21.4027 13.0695 23.5138 11.4231 26.0296 10.4655C28.5453 9.508 31.336 9.28872 34 9.83927C36.9948 10.7899 39.6383 12.4604 41.64 14.6673C43.8478 17.1073 46.6491 19.0649 49.8307 20.3911C53.0122 21.7173 56.4902 22.3772 60 22.3206C64.7345 22.6203 69.4217 21.3147 73.128 18.6638C76.8343 16.0128 79.2878 12.2109 80 8.01536C78.6228 10.1389 76.5184 11.8102 73.9975 12.7826C71.4766 13.755 68.6728 13.9769 66 13.4156ZM14 31.2255C16.9998 32.1493 19.6477 33.8102 21.64 36.0178C23.8358 38.4775 26.6318 40.4555 29.814 41.8006C32.9962 43.1457 36.4804 43.8222 40 43.7784C44.7345 44.0781 49.4217 42.7725 53.128 40.1216C56.8343 37.4706 59.2878 33.6688 60 29.4732C58.5973 31.5716 56.4862 33.218 53.9704 34.1756C51.4547 35.1331 48.664 35.3524 46 34.8018C43.0052 33.8512 40.3617 32.1807 38.36 29.9738C36.1462 27.5399 33.3438 25.5866 30.1636 24.2609C26.9835 22.9353 23.5084 22.2718 20 22.3206C15.2655 22.0208 10.5783 23.3264 6.87202 25.9773C3.16571 28.6283 0.712168 32.4302 0 36.6258C1.37723 34.5023 3.48163 32.8309 6.00253 31.8585C8.52344 30.8862 11.3272 30.6642 14 31.2255Z" fill="#F9C202"/>
</svg>
