<svg width="23" height="33" viewBox="0 0 23 33" fill="none" xmlns="http://www.w3.org/2000/svg">
<path d="M5.30769 0C3.90001 0 2.54997 0.521516 1.55459 1.44982C0.559204 2.37813 2.01958e-06 3.63718 2.01958e-06 4.95C2.01958e-06 6.26282 0.559204 7.52187 1.55459 8.45018C2.54997 9.37848 3.90001 9.9 5.30769 9.9H17.6923C19.1 9.9 20.45 9.37848 21.4454 8.45018C22.4408 7.52187 23 6.26282 23 4.95C23 3.63718 22.4408 2.37813 21.4454 1.44982C20.45 0.521516 19.1 0 17.6923 0H5.30769ZM17.6923 11.55C16.2846 11.55 14.9346 12.0715 13.9392 12.9998C12.9438 13.9281 12.3846 15.1872 12.3846 16.5C12.3846 17.8128 12.9438 19.0719 13.9392 20.0002C14.9346 20.9285 16.2846 21.45 17.6923 21.45C19.1 21.45 20.45 20.9285 21.4454 20.0002C22.4408 19.0719 23 17.8128 23 16.5C23 15.1872 22.4408 13.9281 21.4454 12.9998C20.45 12.0715 19.1 11.55 17.6923 11.55ZM2.01958e-06 16.5C2.01958e-06 15.1872 0.559204 13.9281 1.55459 12.9998C2.54997 12.0715 3.90001 11.55 5.30769 11.55H10.6154V21.45H5.30769C3.90001 21.45 2.54997 20.9285 1.55459 20.0002C0.559204 19.0719 2.01958e-06 17.8128 2.01958e-06 16.5ZM5.30769 23.1C4.25793 23.1 3.23174 23.3903 2.3589 23.9342C1.48605 24.4781 0.805753 25.2512 0.404026 26.1557C0.00229975 27.0602 -0.10281 28.0555 0.101988 29.0157C0.306787 29.9759 0.812295 30.8579 1.55459 31.5502C2.29688 32.2424 3.24262 32.7139 4.27221 32.9049C5.30181 33.0959 6.36901 32.9979 7.33886 32.6232C8.30871 32.2485 9.13766 31.6141 9.72088 30.8001C10.3041 29.986 10.6154 29.029 10.6154 28.05V23.1H5.30769Z" fill="#15161F"/>
</svg>
