<svg width="33" height="33" viewBox="0 0 33 33" fill="none" xmlns="http://www.w3.org/2000/svg">
<path fill-rule="evenodd" clip-rule="evenodd" d="M12.3006 17.8095H16.3258C15.6329 15.4523 14.9504 13.2733 14.279 11.0586C13.6275 13.2811 12.9665 15.4523 12.3006 17.8095ZM32.2437 0H0.495026C-0.0774186 0 0.00454639 0.124666 0.00454639 0.677021V32.4706C0.00454639 33.0224 -0.0774185 32.9999 0.454699 32.9999H32.284C32.8159 32.9999 33 33.0224 33 32.4703V0.717354C33 0.124666 32.8162 0 32.2437 0ZM19.9846 24.8809C19.5559 24.8809 19.1257 24.846 18.6991 24.8767C18.3914 24.8997 18.2885 24.7703 18.2065 24.5032C17.81 23.2117 17.3887 21.9208 16.992 20.6296C16.9121 20.3698 16.7979 20.275 16.5164 20.2784C15.0701 20.2952 13.623 20.2936 12.1765 20.2766C11.8719 20.2729 11.7318 20.3541 11.6449 20.6563C11.2767 21.9407 10.8739 23.2146 10.5018 24.4977C10.4212 24.7758 10.2986 24.873 10.0032 24.8654C9.13434 24.8437 8.26415 24.857 7.31278 24.857C7.56391 24.0595 7.79173 23.322 8.02742 22.5876C9.47136 18.0829 10.9203 13.5781 12.3537 9.07051C12.4538 8.75675 12.5928 8.66011 12.9149 8.66718C13.9326 8.6897 14.951 8.67294 15.9691 8.66718C16.1595 8.66587 16.2894 8.67713 16.359 8.89347C18.0625 14.1619 19.772 19.4629 21.4799 24.7308C21.4872 24.7546 21.4825 24.8809 21.4864 24.8809H19.9846ZM25.4058 24.8809H22.2634V13.0952H25.4058V24.8809ZM23.7429 11.5052C22.7832 11.5039 22.096 10.8431 22.0895 9.91541C22.0832 8.99037 22.7984 8.30235 23.767 8.3013C24.7433 8.30025 25.4312 8.96575 25.4388 9.91751C25.4456 10.846 24.7404 11.5067 23.7429 11.5052Z" fill="#15161F"/>
</svg>
