<svg width="33" height="33" viewBox="0 0 33 33" fill="none" xmlns="http://www.w3.org/2000/svg">
<path fill-rule="evenodd" clip-rule="evenodd" d="M12.8978 10.6584C11.9334 10.4157 10.9678 10.4936 9.94871 10.6526C9.94871 12.4384 9.94505 14.1761 9.9584 15.9141C9.95893 16.0031 10.0922 16.1579 10.1787 16.1697C11.2899 16.3201 12.3952 16.3322 13.4344 15.8247C14.5095 15.2998 15.0572 14.2024 14.9152 12.9139C14.7864 11.7406 14.0931 10.9594 12.8978 10.6584ZM33 16.5227V0.599628C33 0.0495973 33.006 0 32.473 0H0.649262C0.130952 0 0 0.0498597 0 0.573648V32.4599C0 32.9895 0.066 32.9903 0.578548 32.9903C11.2001 32.9906 21.8533 32.9879 32.4749 33C32.8869 33.0005 32.9974 32.8906 32.9963 32.4859C32.9822 27.1648 33 21.8432 33 16.5227ZM14.497 18.0552C13.0415 18.5753 11.5238 18.6045 9.95238 18.4824V24.405H7.07143V24.0371C7.07143 19.0787 7.04864 14.1208 7.03476 9.16263C7.03319 8.75089 7.0984 8.55198 7.56145 8.50474C9.74364 8.28116 11.9135 8.02976 14.0834 8.53964C16.4159 9.08731 17.7608 10.6324 17.863 12.7672C17.9895 15.4108 16.83 17.2215 14.497 18.0552ZM26.102 21.4021C25.9909 22.9165 25.1387 23.9108 23.7409 24.3916C21.8704 25.035 20.01 24.8857 18.1819 24.1578C17.8826 24.0384 17.8247 23.8872 17.9235 23.5815C18.1034 23.0236 18.2351 22.45 18.3739 21.9319C19.1468 22.1592 19.8817 22.4429 20.6431 22.577C21.1808 22.6717 21.7619 22.6161 22.3085 22.5303C22.7985 22.4531 23.1511 22.1198 23.2315 21.5929C23.3132 21.0573 23.1521 20.5933 22.6802 20.3084C22.3051 20.0822 21.8918 19.9202 21.4956 19.7305C20.8584 19.4253 20.1792 19.186 19.5915 18.8042C17.2786 17.3013 18.0316 14.505 19.575 13.4519C20.4008 12.8887 21.3146 12.6389 22.2928 12.6045C23.4434 12.5641 24.5512 12.763 25.6394 13.2928L25.0645 15.3368C24.6088 15.1752 24.1845 14.9652 23.7367 14.8818C23.2053 14.7826 22.648 14.7272 22.1116 14.771C21.3924 14.8301 20.9712 15.3274 20.9712 15.9441C20.9712 16.3094 21.1095 16.6185 21.4136 16.7956C21.8499 17.0499 22.313 17.2596 22.7718 17.4724C23.2684 17.7025 23.7927 17.8794 24.2707 18.1421C25.5462 18.8427 26.2101 19.9265 26.102 21.4021Z" fill="#15161F"/>
</svg>
