<svg width="36" height="33" viewBox="0 0 36 33" fill="none" xmlns="http://www.w3.org/2000/svg">
<path d="M18 13.1928C16.2304 13.1928 14.7892 14.6776 14.7892 16.5008C14.7892 18.324 16.2304 19.8087 18 19.8087C19.7696 19.8087 21.2108 18.324 21.2108 16.5008C21.2108 14.6776 19.7696 13.1928 18 13.1928ZM9.01125 23.075L8.3025 22.8942C3.0285 21.5172 0 19.1875 0 16.495C0 13.8025 3.02963 11.4728 8.3025 10.0958L9.01125 9.91501L9.21037 10.6394C9.74539 12.5368 10.4294 14.3862 11.2556 16.1693L11.4075 16.495L11.2556 16.8265C10.4277 18.6088 9.74361 20.4583 9.21037 22.3564L9.01125 23.075ZM7.97513 11.7857C3.96675 12.9448 1.50637 14.7251 1.50637 16.495C1.50637 18.2649 3.96788 20.0382 7.97513 21.2043C8.46636 19.5962 9.05938 18.0231 9.75037 16.495C9.05841 14.9673 8.46537 13.3941 7.97513 11.7857ZM26.9888 23.075L26.7896 22.3506C26.2555 20.4547 25.5715 18.6072 24.7444 16.8265L24.5925 16.495L24.7444 16.1635C25.5723 14.3812 26.2564 12.5316 26.7896 10.6336L26.9888 9.91501L27.6975 10.0958C32.9715 11.4728 36 13.8025 36 16.495C36 19.1875 32.9704 21.5172 27.6975 22.8942L26.9888 23.075ZM26.2496 16.495C26.9429 18.0221 27.536 19.5954 28.0249 21.2043C32.0389 20.0394 34.4936 18.2649 34.4936 16.495C34.4936 14.7251 32.0321 12.9517 28.0249 11.7857C27.5325 13.3934 26.9395 14.9664 26.2496 16.495ZM7.96275 11.7799L7.76363 11.0555C6.28088 5.67054 6.732 1.80739 9 0.460566C11.2264 -0.86192 14.7949 0.701651 18.5389 4.66216L19.0485 5.19996L18.5389 5.73776C17.2093 7.16297 15.9944 8.69721 14.9062 10.3253L14.7015 10.6209L14.3494 10.651C12.4352 10.8067 10.5363 11.1218 8.6715 11.5933L7.96275 11.7799ZM10.8101 1.53617C10.4062 1.53617 10.0485 1.62078 9.74925 1.8016C8.26088 2.68944 7.99763 5.7679 9.0225 9.92081C10.6216 9.55227 12.2425 9.29208 13.8746 9.14192C14.8143 7.76309 15.8418 6.45007 16.9504 5.21155C14.6126 2.8633 12.3975 1.53617 10.8101 1.53617ZM25.1955 32.9988C25.1899 32.9988 25.1899 32.9988 25.1955 32.9988C23.0569 32.9988 20.3085 31.3449 17.4611 28.3267L16.9515 27.7889L17.4611 27.2511C18.7907 25.8259 20.0056 24.2916 21.0938 22.6635L21.2929 22.3679L21.645 22.332C23.5617 22.1816 25.4628 21.8664 27.3285 21.3897L28.0373 21.2089L28.2364 21.9333C29.7191 27.3183 29.268 31.1756 27 32.5213C26.4517 32.846 25.8278 33.0118 25.1955 32.9988ZM19.0485 27.7773C21.3862 30.1255 23.6014 31.4538 25.1887 31.4538H25.1944C25.5926 31.4538 25.9504 31.3634 26.2496 31.1884C27.738 30.3006 28.008 27.2221 26.9764 23.0692C25.3776 23.4381 23.7566 23.6964 22.1243 23.8423C21.1846 25.223 20.1571 26.5368 19.0485 27.7773ZM28.0373 11.7799L27.3285 11.5933C25.4615 11.1234 23.5609 10.8083 21.645 10.651L21.2929 10.6209L21.0938 10.3253C20.0056 8.69721 18.7907 7.16297 17.4611 5.73776L16.9515 5.19996L17.4611 4.66216C21.2051 0.701651 24.7736 -0.86192 27 0.460566C29.268 1.80623 29.7191 5.67054 28.2364 11.0555L28.0373 11.7799ZM22.1254 9.14192C23.7576 9.29167 25.3784 9.55187 26.9775 9.92081C28.0091 5.7679 27.7391 2.68828 26.2507 1.8016C24.768 0.920713 21.9791 2.27218 19.0496 5.21271C20.1552 6.45389 21.1826 7.7667 22.1254 9.14308V9.14192ZM10.8101 32.9988C10.1768 33.0104 9.55013 32.8482 9 32.5225C6.732 31.1768 6.28088 27.3183 7.76363 21.9345L7.96275 21.21L8.6715 21.3909C10.4062 21.8441 12.3165 22.157 14.3494 22.3332L14.7015 22.3691L14.9006 22.6647C15.9888 24.2928 17.2037 25.827 18.5333 27.2522L19.0429 27.79L18.5333 28.3278C15.6915 31.346 12.9431 33 10.8101 33V32.9988ZM9.02362 23.0692C7.992 27.2221 8.262 30.3017 9.75037 31.1884C11.2331 32.0577 14.0164 30.7178 16.9515 27.7773C15.8429 26.5368 14.8154 25.2218 13.8757 23.8411C12.2434 23.6957 10.6224 23.4385 9.02362 23.0692ZM18 24.0405C16.7636 24.0405 15.498 23.986 14.2267 23.877L13.8746 23.8469L13.6699 23.5456C12.9518 22.4826 12.2773 21.389 11.6483 20.2677C11.0179 19.1464 10.4335 17.9983 9.89662 16.8265L9.74475 16.495L9.89662 16.1635C10.9722 13.8203 12.2342 11.573 13.6699 9.44444L13.8746 9.14308L14.2267 9.11295C16.7378 8.89504 19.2622 8.89504 21.7733 9.11295L22.1254 9.14308L22.3301 9.44444C23.7676 11.5717 25.0298 13.8193 26.1034 16.1635L26.2552 16.495L26.1034 16.8265C25.0319 19.1719 23.7697 21.4196 22.3301 23.5456L22.1254 23.8469L21.7733 23.877C20.5182 23.9852 19.2594 24.0398 18 24.0405ZM14.7071 22.3622C16.9223 22.5372 19.0777 22.5372 21.2985 22.3622C22.537 20.4936 23.6377 18.532 24.5914 16.4938C23.6418 14.4523 22.5389 12.4902 21.2929 10.6255C19.1009 10.4505 16.8991 10.4505 14.7071 10.6255C13.4602 12.4896 12.3573 14.4518 11.4086 16.4938C12.3625 18.533 13.4652 20.4948 14.7071 22.3622Z" fill="#15161F"/>
</svg>
