<svg width="42" height="27" viewBox="0 0 42 27" fill="none" xmlns="http://www.w3.org/2000/svg">
<path d="M34.65 7.9085C33.0751 7.32848 31.685 6.28558 30.639 4.89941C29.4862 3.35497 28.0183 2.11295 26.3477 1.26835C24.677 0.423758 22.8478 -0.0010212 21 0.0264972C18.5144 -0.161738 16.0536 0.658051 14.1078 2.32262C12.162 3.98719 10.8739 6.37439 10.5 9.00883C11.2364 7.69122 12.3448 6.65741 13.6655 6.05615C14.9863 5.4549 16.4514 5.31721 17.85 5.66291C19.4223 6.2598 20.8101 7.30876 21.861 8.69444C23.0201 10.2266 24.4908 11.4557 26.1611 12.2885C27.8314 13.1212 29.6574 13.5356 31.5 13.5C33.9856 13.6882 36.4464 12.8684 38.3922 11.2039C40.338 9.53931 41.6261 7.1521 42 4.51766C41.277 5.85102 40.1721 6.90046 38.8487 7.51103C37.5252 8.12159 36.0532 8.26095 34.65 7.9085ZM7.35 19.0915C8.92489 19.6715 10.315 20.7144 11.361 22.1006C12.5138 23.645 13.9817 24.8871 15.6523 25.7316C17.323 26.5762 19.1522 27.001 21 26.9735C23.4856 27.1617 25.9464 26.3419 27.8922 24.6774C29.838 23.0128 31.1261 20.6256 31.5 17.9912C30.7636 19.3088 29.6552 20.3426 28.3345 20.9438C27.0137 21.5451 25.5486 21.6828 24.15 21.3371C22.5777 20.7402 21.1899 19.6912 20.139 18.3056C18.9768 16.7773 17.5055 15.5508 15.8359 14.7184C14.1663 13.886 12.3419 13.4694 10.5 13.5C8.01437 13.3118 5.55363 14.1316 3.60781 15.7961C1.662 17.4607 0.373888 19.8479 0 22.4823C0.723044 21.149 1.82786 20.0995 3.15133 19.489C4.4748 18.8784 5.9468 18.7391 7.35 19.0915Z" fill="#15161F"/>
</svg>
