<svg width="33" height="33" viewBox="0 0 33 33" fill="none" xmlns="http://www.w3.org/2000/svg">
<path fill-rule="evenodd" clip-rule="evenodd" d="M0 0H33V33H0V0ZM22 13.2C20.833 13.2 19.7139 13.6636 18.8887 14.4887C18.0636 15.3139 17.6 16.433 17.6 17.6C17.6 18.767 18.0636 19.8861 18.8887 20.7113C19.7139 21.5364 20.833 22 22 22H24.2C24.7835 22 25.3431 22.2318 25.7556 22.6444C26.1682 23.0569 26.4 23.6165 26.4 24.2C26.4 24.7835 26.1682 25.3431 25.7556 25.7556C25.3431 26.1682 24.7835 26.4 24.2 26.4H22C21.4165 26.4 20.8569 26.1682 20.4444 25.7556C20.0318 25.3431 19.8 24.7835 19.8 24.2H17.6C17.6 25.367 18.0636 26.4861 18.8887 27.3113C19.7139 28.1364 20.833 28.6 22 28.6H24.2C25.367 28.6 26.4861 28.1364 27.3113 27.3113C28.1364 26.4861 28.6 25.367 28.6 24.2C28.6 23.033 28.1364 21.9139 27.3113 21.0887C26.4861 20.2636 25.367 19.8 24.2 19.8H22C21.4165 19.8 20.8569 19.5682 20.4444 19.1556C20.0318 18.7431 19.8 18.1835 19.8 17.6C19.8 17.0165 20.0318 16.4569 20.4444 16.0444C20.8569 15.6318 21.4165 15.4 22 15.4H24.5674C25.5794 15.4 26.4 16.2206 26.4 17.2326V17.6H28.6V17.2326C28.6 15.0062 26.796 13.2 24.5674 13.2H22ZM6.6 13.2H17.6V15.4H13.2V28.6H11V15.4H6.6V13.2Z" fill="#15161F"/>
</svg>
